<svg width="24" height="24" viewBox="0 0 24 24" fill="none" xmlns="http://www.w3.org/2000/svg">
<mask id="path-1-inside-1_623_9790" fill="white">
<path d="M21 12C19.875 16.5 15.7279 18.75 12 18.75C8.27208 18.75 4.125 16.5 3 12C4.125 7.5 8.27208 5.25 12 5.25C15.7279 5.25 19.875 7.5 21 12Z"/>
</mask>
<path d="M21 12L22.9403 12.4851L23.0616 12L22.9403 11.5149L21 12ZM3 12L1.05972 11.5149L0.938447 12L1.05972 12.4851L3 12ZM19.0597 11.5149C18.2066 14.9274 15.0304 16.75 12 16.75V20.75C16.4255 20.75 21.5434 18.0726 22.9403 12.4851L19.0597 11.5149ZM12 16.75C8.96961 16.75 5.79341 14.9274 4.94028 11.5149L1.05972 12.4851C2.45659 18.0726 7.57455 20.75 12 20.75V16.75ZM4.94028 12.4851C5.79341 9.07256 8.96961 7.25 12 7.25V3.25C7.57455 3.25 2.45659 5.92744 1.05972 11.5149L4.94028 12.4851ZM12 7.25C15.0304 7.25 18.2066 9.07256 19.0597 12.4851L22.9403 11.5149C21.5434 5.92744 16.4255 3.25 12 3.25V7.25Z" fill="#404545" mask="url(#path-1-inside-1_623_9790)"/>
<circle cx="12" cy="12" r="2.5" fill="#404545"/>
</svg>
