<svg width="20" height="15" viewBox="0 0 20 15" fill="none" xmlns="http://www.w3.org/2000/svg">
<path d="M16.5 1.5L4 14" stroke="#404545" stroke-width="2" stroke-linecap="round" stroke-linejoin="round"/>
<path d="M13.5797 3.56711C14.0808 3.79924 14.6753 3.58117 14.9074 3.08003C15.1395 2.5789 14.9214 1.98447 14.4203 1.75234L13.5797 3.56711ZM2 7.78267L1.03147 7.53376L0.967505 7.78267L1.03147 8.03157L2 7.78267ZM3.96967 12.5929C4.39943 12.9397 5.02902 12.8725 5.37589 12.4428C5.72276 12.013 5.65556 11.3834 5.22579 11.0365L3.96967 12.5929ZM10.1799 2.8147C11.3117 2.8147 12.497 3.06561 13.5797 3.56711L14.4203 1.75234C13.0706 1.12714 11.5981 0.814697 10.1799 0.814697V2.8147ZM2.96853 8.03157C3.84856 4.60727 7.12086 2.8147 10.1799 2.8147V0.814697C6.46253 0.814697 2.19643 3.00077 1.03147 7.53376L2.96853 8.03157ZM5.22579 11.0365C4.1719 10.1859 3.35112 9.02247 2.96853 7.53376L1.03147 8.03157C1.52914 9.96808 2.60648 11.4926 3.96967 12.5929L5.22579 11.0365Z" fill="#404545"/>
<path d="M18 7.78082L18.9717 8.01692L19.0291 7.78082L18.9717 7.54473L18 7.78082ZM9.11358 12.9524C8.56487 12.8897 8.0692 13.2836 8.00647 13.8324C7.94374 14.3811 8.33771 14.8767 8.88642 14.9395L9.11358 12.9524ZM18.239 5.54832C17.9896 5.05558 17.3879 4.85836 16.8952 5.10782C16.4024 5.35727 16.2052 5.95894 16.4547 6.45168L18.239 5.54832ZM17.0283 7.54473C16.1502 11.1588 12.9099 13 9.94099 13V15C13.6484 15 17.8351 12.695 18.9717 8.01692L17.0283 7.54473ZM9.94099 13C9.66829 13 9.39172 12.9842 9.11358 12.9524L8.88642 14.9395C9.2388 14.9798 9.59122 15 9.94099 15V13ZM16.4547 6.45168C16.6949 6.92614 16.8899 7.44735 17.0283 8.01692L18.9717 7.54473C18.7974 6.82719 18.5493 6.16119 18.239 5.54832L16.4547 6.45168Z" fill="#404545"/>
<path fill-rule="evenodd" clip-rule="evenodd" d="M12.0526 5.9292C11.5433 5.37523 10.8125 5.02808 10.0007 5.02808C8.46156 5.02808 7.21387 6.27577 7.21387 7.81488C7.21387 8.59904 7.53775 9.30756 8.05903 9.81396L12.0526 5.9292Z" fill="#404545"/>
</svg>
